<mxfile host="app.diagrams.net" modified="2022-11-14T08:48:14.892Z" agent="5.0 (Windows NT 10.0; Win64; x64) AppleWebKit/537.36 (KHTML, like Gecko) Chrome/107.0.0.0 Safari/537.36" etag="eRQNOzAOY-HXrRebnWx1" version="20.2.7" type="github">
  <diagram name="Page-1" id="8ce9d11a-91a2-4d17-14d8-a56ed91bf033">
    <mxGraphModel dx="1209" dy="684" grid="1" gridSize="10" guides="1" tooltips="1" connect="1" arrows="1" fold="1" page="1" pageScale="1" pageWidth="1100" pageHeight="850" background="none" math="0" shadow="0">
      <root>
        <mxCell id="0" />
        <mxCell id="1" parent="0" />
        <mxCell id="KqbVNqUxlJ5TTnMhB8eQ-1" value="Cluster Triggers Binding" style="rounded=1;whiteSpace=wrap;html=1;" vertex="1" parent="1">
          <mxGeometry x="150" y="140" width="120" height="60" as="geometry" />
        </mxCell>
        <mxCell id="KqbVNqUxlJ5TTnMhB8eQ-12" value="Cluster Triggers Template" style="rounded=1;whiteSpace=wrap;html=1;" vertex="1" parent="1">
          <mxGeometry x="150" y="290" width="120" height="60" as="geometry" />
        </mxCell>
        <mxCell id="KqbVNqUxlJ5TTnMhB8eQ-44" value="" style="swimlane;startSize=0;" vertex="1" parent="1">
          <mxGeometry x="350" y="150" width="160" height="190" as="geometry" />
        </mxCell>
        <mxCell id="KqbVNqUxlJ5TTnMhB8eQ-42" value="&lt;ul style=&quot;line-height: 1.9;&quot;&gt;&lt;li&gt;&lt;font style=&quot;font-size: 14px;&quot;&gt;Git_repo_ur&lt;/font&gt;&lt;font style=&quot;font-size: 14px;&quot;&gt;l&lt;/font&gt;&lt;/li&gt;&lt;li&gt;&lt;font size=&quot;3&quot;&gt;Gir_revision&lt;/font&gt;&lt;/li&gt;&lt;li&gt;&lt;font size=&quot;3&quot;&gt;Image_repo&lt;/font&gt;&lt;/li&gt;&lt;li&gt;&lt;font size=&quot;3&quot;&gt;Image_name&lt;/font&gt;&lt;/li&gt;&lt;li&gt;&lt;font size=&quot;3&quot;&gt;Image_tag&lt;/font&gt;&lt;/li&gt;&lt;/ul&gt;" style="text;strokeColor=none;fillColor=none;html=1;whiteSpace=wrap;verticalAlign=middle;overflow=hidden;" vertex="1" parent="KqbVNqUxlJ5TTnMhB8eQ-44">
          <mxGeometry width="160" height="180" as="geometry" />
        </mxCell>
        <mxCell id="KqbVNqUxlJ5TTnMhB8eQ-45" value="开始" style="ellipse;whiteSpace=wrap;html=1;aspect=fixed;fontSize=14;" vertex="1" parent="1">
          <mxGeometry x="920" y="40" width="80" height="80" as="geometry" />
        </mxCell>
        <mxCell id="KqbVNqUxlJ5TTnMhB8eQ-46" value="Branch：&lt;br&gt;master？" style="rhombus;whiteSpace=wrap;html=1;fontSize=14;" vertex="1" parent="1">
          <mxGeometry x="895" y="210" width="130" height="80" as="geometry" />
        </mxCell>
        <mxCell id="KqbVNqUxlJ5TTnMhB8eQ-47" value="Branch：&lt;br&gt;sandbox？" style="rhombus;whiteSpace=wrap;html=1;fontSize=14;" vertex="1" parent="1">
          <mxGeometry x="1130" y="210" width="130" height="80" as="geometry" />
        </mxCell>
        <mxCell id="KqbVNqUxlJ5TTnMhB8eQ-49" value="Hook：&lt;br&gt;Push？" style="rhombus;whiteSpace=wrap;html=1;fontSize=14;" vertex="1" parent="1">
          <mxGeometry x="895" y="370" width="130" height="80" as="geometry" />
        </mxCell>
        <mxCell id="KqbVNqUxlJ5TTnMhB8eQ-50" value="Hook：&lt;br&gt;Tag？" style="rhombus;whiteSpace=wrap;html=1;fontSize=14;" vertex="1" parent="1">
          <mxGeometry x="1150" y="360" width="130" height="80" as="geometry" />
        </mxCell>
        <mxCell id="KqbVNqUxlJ5TTnMhB8eQ-51" value="Image_tag:Git_tag" style="rounded=1;whiteSpace=wrap;html=1;fontSize=14;" vertex="1" parent="1">
          <mxGeometry x="880" y="540" width="145" height="100" as="geometry" />
        </mxCell>
        <mxCell id="KqbVNqUxlJ5TTnMhB8eQ-52" value="Image_tag:Git_commit" style="rounded=1;whiteSpace=wrap;html=1;fontSize=14;" vertex="1" parent="1">
          <mxGeometry x="1160" y="540" width="180" height="100" as="geometry" />
        </mxCell>
      </root>
    </mxGraphModel>
  </diagram>
</mxfile>
